<?xml version="1.0" encoding="UTF-8"?>
<svg xmlns="http://www.w3.org/2000/svg" width="148" height="148" viewBox="0 0 149 149" fill="none">
  <path d="M74.3673 0C59.6588 0 45.2807 4.36143 33.0511 12.5328C20.8214 20.7041 11.2896 32.3183 5.6609 45.9067C0.0322227 59.4952 -1.4405 74.4475 1.42898 88.8729C4.29846 103.298 11.3813 116.549 21.7817 126.949C32.1821 137.349 45.4331 144.432 59.859 147.301C74.2848 150.17 89.2376 148.698 102.826 143.069C116.415 137.441 128.03 127.909 136.201 115.68C144.373 103.451 148.735 89.073 148.735 74.365C148.713 54.6487 140.871 35.7459 126.929 21.8044C112.988 7.86283 94.0842 0.0211747 74.3673 0ZM74.3673 108.163C67.6801 108.163 61.1431 106.18 55.5831 102.464C50.0231 98.7491 45.6897 93.4685 43.1311 87.2903C40.5725 81.1122 39.9036 74.3141 41.2089 67.7557C42.5142 61.1974 45.7352 55.1735 50.4644 50.4458C55.1937 45.7181 61.2187 42.499 67.7777 41.1956C74.3366 39.8923 81.1347 40.5632 87.3123 43.1236C93.4898 45.684 98.7694 50.0187 102.483 55.5797C106.197 61.1407 108.178 67.678 108.176 74.365C108.165 83.3272 104.6 91.9191 98.2614 98.2554C91.923 104.592 83.3298 108.155 74.3673 108.163ZM7.71975 74.365C7.73865 57.3614 14.2485 41.0064 25.9197 28.6406C37.5909 16.2747 53.5428 8.83087 70.5174 7.82947V33.0478C60.2166 33.9968 50.6419 38.7597 43.6709 46.4022C36.6999 54.0448 32.8355 64.0158 32.8355 74.36C32.8355 84.7041 36.6999 94.6751 43.6709 102.318C50.6419 109.96 60.2166 114.723 70.5174 115.672V140.89C53.5437 139.892 37.5918 132.45 25.9204 120.086C14.249 107.721 7.7388 91.3676 7.71975 74.365ZM78.2271 140.89V115.672C88.528 114.723 98.1027 109.96 105.074 102.318C112.045 94.6751 115.909 84.7041 115.909 74.36C115.909 64.0158 112.045 54.0448 105.074 46.4022C98.1027 38.7597 88.528 33.9968 78.2271 33.0478V7.82947C95.1964 8.82757 111.143 16.2717 122.804 28.639C134.466 41.0063 140.961 57.3619 140.961 74.36C140.961 91.358 134.466 107.714 122.804 120.081C111.143 132.448 95.1964 139.892 78.2271 140.89Z" fill="#1D252C"/>
</svg>