<?xml version="1.0" standalone="no"?>
<!DOCTYPE svg PUBLIC "-//W3C//DTD SVG 20010904//EN"
 "http://www.w3.org/TR/2001/REC-SVG-20010904/DTD/svg10.dtd">
<svg version="1.0" xmlns="http://www.w3.org/2000/svg"
 width="700.000000pt" height="700.000000pt" viewBox="0 0 700.000000 700.000000"
 preserveAspectRatio="xMidYMid meet">
<metadata>
Created by potrace 1.11, written by Peter Selinger 2001-2013
</metadata>
<g transform="translate(0.000000,700.000000) scale(0.100000,-0.100000)"
fill="#000000" stroke="none">
<path d="M3235 6989 c-161 -14 -216 -21 -325 -41 -63 -11 -126 -22 -140 -24
-68 -12 -303 -78 -417 -118 -323 -111 -631 -272 -913 -476 -63 -46 -117 -86
-120 -89 -3 -3 -47 -42 -98 -85 -307 -259 -583 -598 -786 -962 -70 -127 -151
-300 -194 -416 -12 -32 -31 -82 -42 -110 -30 -79 -105 -344 -116 -408 -3 -14
-11 -54 -18 -90 -8 -36 -17 -87 -21 -115 -3 -27 -10 -79 -16 -115 -16 -102
-23 -240 -23 -445 -1 -234 7 -329 40 -533 8 -51 17 -105 19 -121 6 -51 56
-244 97 -376 69 -225 193 -512 288 -670 20 -33 40 -67 44 -75 34 -69 156 -246
270 -389 464 -585 1111 -1008 1836 -1200 41 -11 86 -22 100 -24 14 -3 52 -12
85 -20 33 -8 85 -18 115 -22 30 -4 62 -9 70 -10 69 -12 109 -18 135 -20 17 -1
75 -6 130 -10 174 -14 536 -8 650 10 17 3 75 12 130 19 55 8 145 24 200 36 55
12 107 23 117 25 123 25 464 146 626 221 52 24 95 44 96 44 11 0 263 147 351
205 219 143 361 260 570 469 314 316 550 664 726 1073 86 200 180 491 209 651
5 31 12 68 15 82 14 71 25 140 30 180 3 25 7 61 10 80 19 141 25 489 11 660
-7 93 -32 290 -41 320 -2 8 -6 31 -9 50 -9 58 -16 93 -28 135 -5 22 -12 48
-13 57 -30 153 -141 460 -245 675 -278 576 -689 1047 -1226 1405 -387 257
-865 447 -1314 523 -151 25 -192 31 -290 41 -76 8 -501 10 -575 3z m79 -945
c-1 -489 -4 -588 -15 -594 -8 -4 -41 -11 -74 -15 -274 -31 -605 -161 -849
-333 -443 -311 -730 -779 -812 -1322 -16 -107 -23 -428 -10 -485 2 -11 7 -45
11 -75 4 -30 18 -101 31 -157 136 -575 521 -1055 1048 -1308 200 -96 409 -158
601 -180 33 -4 62 -9 64 -11 3 -3 4 -1045 2 -1162 -1 -21 -4 -22 -63 -16 -210
19 -396 52 -563 98 -345 95 -643 230 -925 419 -199 133 -319 234 -495 411
-416 421 -691 926 -826 1516 -11 47 -22 101 -25 120 -3 19 -9 58 -14 85 -41
231 -46 610 -10 870 23 162 32 210 71 368 140 562 435 1069 858 1479 324 314
661 527 1086 687 94 36 280 94 335 105 14 3 52 12 85 20 97 23 348 60 445 65
l45 2 -1 -587z m547 571 c10 -2 42 -6 71 -9 29 -4 64 -9 78 -12 14 -3 36 -7
50 -10 409 -75 827 -245 1175 -477 61 -41 203 -146 240 -178 11 -9 43 -36 70
-60 71 -61 283 -275 330 -334 22 -27 46 -56 53 -64 24 -25 125 -164 176 -241
160 -244 286 -508 371 -780 43 -138 53 -179 91 -355 17 -81 40 -255 49 -370 5
-72 6 -364 0 -420 -2 -22 -6 -71 -10 -110 -12 -135 -28 -230 -61 -375 -14 -58
-27 -116 -30 -129 -3 -13 -27 -90 -54 -171 -54 -163 -128 -338 -202 -475 -27
-49 -52 -98 -55 -107 -3 -10 -9 -18 -14 -18 -5 0 -9 -5 -9 -11 0 -18 -143
-228 -231 -340 -397 -502 -936 -870 -1544 -1055 -100 -31 -260 -72 -310 -80
-21 -3 -47 -8 -59 -10 -11 -2 -37 -7 -56 -9 -19 -3 -44 -7 -55 -10 -23 -4
-174 -18 -220 -19 l-30 -1 0 583 c0 321 2 587 5 592 3 4 32 11 65 15 390 44
791 236 1099 525 284 267 516 703 571 1075 4 22 8 51 11 65 14 83 22 392 11
445 -3 11 -8 49 -12 85 -20 184 -112 473 -202 638 -44 81 -114 196 -145 237
-280 378 -663 637 -1108 750 -108 27 -125 31 -206 40 -33 4 -66 11 -74 15 -13
7 -15 82 -14 592 1 320 2 585 3 586 1 4 152 -7 182 -13z m-201 -1530 c94 -11
109 -13 163 -25 429 -99 783 -345 1010 -703 93 -145 189 -383 216 -532 6 -33
14 -71 17 -85 3 -14 7 -104 9 -200 3 -174 -10 -301 -45 -430 -7 -25 -14 -52
-16 -60 -18 -76 -109 -276 -173 -379 -235 -379 -628 -646 -1073 -728 -114 -21
-442 -24 -529 -5 -30 7 -69 15 -85 18 -71 12 -238 70 -341 119 -479 227 -820
687 -889 1201 -3 27 -8 58 -11 69 -6 28 -5 294 1 330 3 17 10 59 15 95 78 495
407 935 866 1160 82 40 291 120 310 119 3 0 29 4 58 10 97 19 112 22 192 28
44 3 81 6 82 7 5 4 172 -3 223 -9z"/>
</g>
</svg>
